Coordinates
version=1
nRows=54
nColumns=12
inDegrees=yes

Units are S.I. units (second, meters, Newtons, ...)
Angles are in degrees

endheader
time	SC_y	SC_z	SC_x	AC_y	AC_z	AC_x	GH_y	GH_z	GH_yy	EL_x	PS_y
       0.0              -15.82         -4.209          49.06          34.08          9.299         -5.185          127.9         -17.46          162.3          123.0           63.9
  0.007252              -15.83         -4.208          49.07          34.08          9.299         -5.182          127.9         -17.44          162.3          123.0          63.91
    0.0145              -15.83         -4.207          49.07          34.08          9.298         -5.179          127.9         -17.43          162.3          123.0          63.92
   0.02176              -15.83         -4.207          49.08          34.09          9.297         -5.176          127.9         -17.42          162.2          123.0          63.93
   0.02901              -15.84         -4.206          49.08          34.09          9.297         -5.172          127.9         -17.41          162.2          123.0          63.94
   0.03626              -15.84         -4.205          49.09          34.09          9.296         -5.168          127.9         -17.39          162.2          123.0          63.95
   0.04351              -15.84         -4.204           49.1          34.09          9.296         -5.164          127.9         -17.38          162.2          122.9          63.97
   0.05077              -15.85         -4.203           49.1          34.09          9.295          -5.16          127.9         -17.36          162.2          122.9          63.98
   0.05802              -15.85         -4.202          49.11           34.1          9.294         -5.155          127.9         -17.34          162.2          122.9          63.99
   0.06527              -15.86         -4.201          49.12           34.1          9.293          -5.15          127.9         -17.33          162.2          122.9          64.01
   0.07252              -15.86           -4.2          49.13           34.1          9.292         -5.145          127.9         -17.31          162.2          122.9          64.03
   0.07978              -15.87         -4.199          49.14           34.1          9.291         -5.139          127.9         -17.29          162.2          122.9          64.04
   0.08703              -15.88         -4.198          49.15          34.11           9.29         -5.133          127.9         -17.26          162.1          122.9          64.06
   0.09428              -15.88         -4.197          49.16          34.11          9.289         -5.126          127.9         -17.24          162.1          122.8          64.08
    0.1015              -15.89         -4.195          49.17          34.11          9.288         -5.119          127.9         -17.21          162.1          122.8          64.11
    0.1088               -15.9         -4.193          49.18          34.12          9.287         -5.111          127.9         -17.18          162.1          122.8          64.13
     0.116              -15.91         -4.192           49.2          34.12          9.286         -5.103          127.9         -17.15          162.1          122.8          64.16
    0.1233              -15.92          -4.19          49.21          34.13          9.284         -5.093          127.9         -17.11          162.1          122.8          64.19
    0.1305              -15.93         -4.188          49.23          34.13          9.282         -5.083          127.9         -17.08          162.0          122.7          64.22
    0.1378              -15.94         -4.186          49.25          34.14          9.281         -5.072          127.9         -17.04          162.0          122.7          64.26
     0.145              -15.95         -4.183          49.27          34.14          9.279          -5.06          127.9         -16.99          162.0          122.7          64.29
    0.1523              -15.96          -4.18          49.29          34.15          9.276         -5.046          127.9         -16.94          161.9          122.6          64.34
    0.1596              -15.98         -4.177          49.32          34.16          9.274         -5.031          127.9         -16.89          161.9          122.6          64.38
    0.1668              -15.99         -4.174          49.35          34.17          9.271         -5.015          127.9         -16.82          161.9          122.6          64.43
    0.1741              -16.01          -4.17          49.38          34.18          9.268         -4.997          127.9         -16.76          161.8          122.5          64.49
    0.1813              -16.03         -4.166          49.41          34.19          9.265         -4.976          127.9         -16.68          161.8          122.5          64.56
    0.1886              -16.06         -4.161          49.45           34.2          9.261         -4.953          127.9          -16.6          161.7          122.4          64.63
    0.1958              -16.08         -4.156          49.49          34.21          9.257         -4.927          127.9          -16.5          161.7          122.3          64.71
    0.2031              -16.11          -4.15          49.54          34.23          9.252         -4.898          127.9         -16.39          161.6          122.3           64.8
    0.2103              -16.15         -4.143           49.6          34.24          9.247         -4.865          127.9         -16.27          161.5          122.2           64.9
    0.2176              -16.18         -4.136          49.66          34.26          9.241         -4.827          127.9         -16.13          161.4          122.1          65.02
    0.2248              -16.23         -4.127          49.73          34.28          9.234         -4.784          127.9         -15.97          161.3          122.0          65.16
    0.2321              -16.28         -4.117          49.82          34.31          9.225         -4.734          127.9         -15.78          161.2          121.8          65.32
    0.2393              -16.34         -4.105          49.92          34.34          9.216         -4.676          127.9         -15.57          161.1          121.7           65.5
    0.2466              -16.41         -4.091          50.03          34.37          9.205         -4.608          127.8         -15.32          160.9          121.5          65.71
    0.2538              -16.49         -4.075          50.17          34.41          9.192         -4.528          127.8         -15.02          160.8          121.3          65.96
    0.2611              -16.58         -4.055          50.33          34.46          9.176         -4.432          127.8         -14.67          160.5          121.1          66.26
    0.2683               -16.7         -4.032          50.52          34.52          9.158         -4.318          127.8         -14.24          160.3          120.8          66.62
    0.2756              -16.84         -4.004          50.75          34.59          9.135          -4.18          127.8         -13.73          160.0          120.4          67.05
    0.2828              -17.01          -3.97          51.03          34.67          9.107         -4.011          127.7          -13.1          159.6          120.0          67.58
    0.2901              -17.22         -3.927          51.38          34.78          9.073         -3.803          127.7         -12.33          159.1          119.4          68.24
    0.2973              -17.48         -3.875          51.82          34.91          9.031         -3.543          127.7         -11.37          158.5          118.8          69.05
    0.3046              -17.81         -3.808          52.37          35.07          8.978         -3.216          127.6         -10.16          157.8          117.9          70.08
    0.3118              -18.23         -3.724          53.07          35.28           8.91           -2.8          127.6         -8.614          156.8          116.8          71.38
    0.3191              -18.77         -3.615          53.96          35.55          8.823         -2.267          127.5          -6.64          155.6          115.5          73.05
    0.3264              -19.46         -3.476          55.11           35.9          8.711         -1.584          127.4         -4.108          154.0          113.7           75.2
    0.3336              -20.34         -3.299          56.58          36.34          8.569        -0.7111          127.2        -0.8723          152.0          111.4          77.94
    0.3409              -21.44         -3.076          58.42          36.89           8.39         0.3864          127.0          3.196          149.5          108.6          81.38
    0.3481              -22.79         -2.804          60.67          37.56          8.172          1.724          126.8          8.153          146.5          105.1          85.58
    0.3554              -24.36         -2.489          63.28          38.35          7.919          3.274          126.6           13.9          142.9          101.1          90.44
    0.3626              -26.05         -2.147           66.1          39.19          7.645          4.953          126.3          20.12          139.1          96.78          95.71
    0.3699              -27.74         -1.806          68.92          40.04          7.371          6.632          126.0          26.34          135.2          92.44          101.0
    0.3771              -29.31         -1.491          71.53          40.82          7.118          8.182          125.8          32.09          131.7          88.43          105.8
    0.3844              -30.66         -1.219          73.77          41.49            6.9          9.519          125.6          37.05          128.6          84.97          110.0
